<?xml version="1.0" encoding="UTF-8"?>
<svg width="25px" height="32px" viewBox="0 0 25 32" version="1.1" xmlns="http://www.w3.org/2000/svg" xmlns:xlink="http://www.w3.org/1999/xlink">
    <title>画板</title>
    <defs>
        <linearGradient x1="50%" y1="0%" x2="50%" y2="100%" id="linearGradient-1">
            <stop stop-color="#E7275C" offset="0%"></stop>
            <stop stop-color="#F49D7D" offset="100%"></stop>
        </linearGradient>
    </defs>
    <g id="画板" stroke="none" stroke-width="1" fill="none" fill-rule="evenodd">
        <path d="M10.3777831,2.00081863 C10.5610658,2.0280188 15.1474658,2.75530606 15.5806271,7.48360303 L15.5806271,7.48360303 L15.6084226,7.81174409 C15.8506144,11.2478878 14.3841843,12.6512174 13.9708844,13.5645352 L13.9708844,13.5645352 L13.9449883,13.6217358 C13.4833875,14.6417418 11.9753324,18.0542719 16.0384141,18.5274149 L16.0384141,18.5274149 L16.2631951,18.5477907 C20.139943,18.7952312 19.0524822,13.1510601 19.0524822,13.1510601 L19.0524822,13.1510601 L19.0566179,13.1539597 L19.0886062,13.1772251 C19.4808414,13.4685171 22.9131428,16.2014919 21.7668233,21.8511262 L21.7668233,21.8511262 L21.6963273,22.1740232 C20.3519351,27.9185689 14.9677937,30.022008 11.2727338,30 L11.2727338,30 L10.9676574,29.9932318 C7.30915676,29.8540098 3.75842796,27.6445024 2.56061374,25.290139 L2.56061374,25.290139 L2.4904801,25.1527413 C2.44344118,25.0608519 2.3958842,24.968357 2.34809873,24.875116 L2.20434639,24.5930138 C1.05347668,22.3160384 -0.0622203417,19.5282496 2.8601384,14.28463 L2.8601384,14.28463 L2.99935415,14.061325 C3.65225658,13.076236 4.9356806,11.869808 6.27544453,10.6486556 L6.8957068,10.0847537 C7.9291754,9.14568239 8.94371162,8.2167073 9.67796737,7.39187245 C11.3917757,5.46743407 10.5885951,2.65454929 10.4058119,2.09779121 L10.3811404,2.02503455 C10.3753326,2.00854043 10.372136,2 10.372136,2 L10.372136,2 Z M23.7052374,4 L23.7981151,4.07859192 C24.222017,4.4963956 24.0530867,5.2697855 23.9421276,5.63036772 L23.9023785,5.75076282 C23.8855924,5.79813079 23.8745962,5.82488835 23.8745962,5.82488835 L23.8745962,5.82488835 L22.8960352,6.83449539 L25,8.81245381 L24.9817915,8.83115381 L24.8797894,8.91941947 C24.1122333,9.50061282 22.9387176,8.6620827 22.9387176,8.6620827 L22.9387176,8.6620827 L21.9999021,7.77951997 L19.8465981,10 L19.7616743,9.85527539 C19.1961362,8.80137259 19.8610866,7.92121582 19.8610866,7.92121582 L19.8610866,7.92121582 L20.9532061,6.79536034 L19,4.95871221 L19.1414358,4.86223856 C20.1207239,4.24702732 20.8658835,4.86463387 20.8658835,4.86463387 L20.8658835,4.86463387 L21.9023984,5.85901102 L23.7052374,4 Z" id="形状结合" fill="url(#linearGradient-1)"></path>
    </g>
</svg>